# xmcd
#
# Track frame offsets: 
#        150
#        46909
#        107265
#        125110
#        137858
#        158839
#        187280
#
# Disc length: 2886 seconds
#
# Revision: 0
# Processed by: cddbd v1.5.2PL0 Copyright (c) Steve Scherf et al.
# Submitted via: ExactAudioCopy v0.99pb5
#
DISCID=610b4407
DTITLE=Eric Clapton  - Flawless Disc 10 (Bonus) 7-8-97
DYEAR=1900
DGENRE=
TTITLE0=1st Song-Tango
TTITLE1=Put It Where You Want It
TTITLE2=Jerry Roll
TTITLE3=In A Sentimental Mood
TTITLE4=Layla
TTITLE5=Everyday I Have The Blues
TTITLE6=Jam
EXTD=
EXTT0=
EXTT1=
EXTT2=
EXTT3=
EXTT4=
EXTT5=
EXTT6=
PLAYORDER=
